<?xml version="1.0" encoding="us-ascii" standalone="no"?><svg xmlns="http://www.w3.org/2000/svg" xmlns:xlink="http://www.w3.org/1999/xlink" contentStyleType="text/css" height="242px" preserveAspectRatio="none" style="width:1632px;height:242px;background:#FFFFFF;" version="1.1" viewBox="0 0 1632 242" width="1632px" zoomAndPan="magnify"><defs/><g><!--cluster Kubernetes Cluster--><g id="cluster_Kubernetes Cluster"><rect fill="none" height="229" rx="2.5" ry="2.5" style="stroke:#181818;stroke-width:1.0;" width="1619" x="7" y="7"/><text fill="#000000" font-family="sans-serif" font-size="14" font-weight="bold" lengthAdjust="spacing" textLength="138" x="747.5" y="23.5332">Kubernetes Cluster</text></g><!--cluster Argo-CD--><g id="cluster_Argo-CD"><rect fill="none" height="161" rx="2.5" ry="2.5" style="stroke:#181818;stroke-width:1.0;" width="202" x="1400" y="51"/><text fill="#000000" font-family="sans-serif" font-size="14" font-weight="bold" lengthAdjust="spacing" textLength="58" x="1472" y="67.5332">Argo-CD</text></g><!--cluster Namespace: argocd--><g id="cluster_Namespace: argocd"><rect fill="none" height="93" rx="2.5" ry="2.5" style="stroke:#181818;stroke-width:1.0;" width="154" x="1424" y="95"/><text fill="#000000" font-family="sans-serif" font-size="14" font-weight="bold" lengthAdjust="spacing" textLength="138" x="1432" y="111.5332">Namespace: argocd</text></g><!--cluster Infrastructure--><g id="cluster_Infrastructure"><rect fill="none" height="161" rx="2.5" ry="2.5" style="stroke:#181818;stroke-width:1.0;" width="643" x="733" y="51"/><text fill="#000000" font-family="sans-serif" font-size="14" font-weight="bold" lengthAdjust="spacing" textLength="97" x="1006" y="67.5332">Infrastructure</text></g><!--cluster Namespace: ns-infra_application_name-inf--><g id="cluster_Namespace: ns-infra_application_name-inf"><rect fill="none" height="93" rx="2.5" ry="2.5" style="stroke:#181818;stroke-width:1.0;" width="313" x="1039" y="95"/><text fill="#000000" font-family="sans-serif" font-size="14" font-weight="bold" lengthAdjust="spacing" textLength="297" x="1047" y="111.5332">Namespace: ns-infra_application_name-inf</text></g><!--cluster Namespace: kube-system--><g id="cluster_Namespace: kube-system"><rect fill="none" height="93" rx="2.5" ry="2.5" style="stroke:#181818;stroke-width:1.0;" width="258" x="757" y="95"/><text fill="#000000" font-family="sans-serif" font-size="14" font-weight="bold" lengthAdjust="spacing" textLength="178" x="797" y="111.5332">Namespace: kube-system</text></g><!--cluster Acceptance--><g id="cluster_Acceptance"><rect fill="none" height="161" rx="2.5" ry="2.5" style="stroke:#181818;stroke-width:1.0;" width="327" x="382" y="51"/><text fill="#000000" font-family="sans-serif" font-size="14" font-weight="bold" lengthAdjust="spacing" textLength="82" x="504.5" y="67.5332">Acceptance</text></g><!--cluster Namespace: ns-application_name-acc--><g id="cluster_Namespace: ns-application_name-acc"><rect fill="none" height="93" rx="2.5" ry="2.5" style="stroke:#181818;stroke-width:1.0;" width="279" x="406" y="95"/><text fill="#000000" font-family="sans-serif" font-size="14" font-weight="bold" lengthAdjust="spacing" textLength="263" x="414" y="111.5332">Namespace: ns-application_name-acc</text></g><!--cluster Production--><g id="cluster_Production"><rect fill="none" height="161" rx="2.5" ry="2.5" style="stroke:#181818;stroke-width:1.0;" width="327" x="31" y="51"/><text fill="#000000" font-family="sans-serif" font-size="14" font-weight="bold" lengthAdjust="spacing" textLength="77" x="156" y="67.5332">Production</text></g><!--cluster Namespace: ns-application_name-prd--><g id="cluster_Namespace: ns-application_name-prd"><rect fill="none" height="93" rx="2.5" ry="2.5" style="stroke:#181818;stroke-width:1.0;" width="279" x="55" y="95"/><text fill="#000000" font-family="sans-serif" font-size="14" font-weight="bold" lengthAdjust="spacing" textLength="263" x="63" y="111.5332">Namespace: ns-application_name-prd</text></g><!--entity App: argocd--><g id="elem_App: argocd"><rect fill="#F1F1F1" height="40.6094" rx="2.5" ry="2.5" style="stroke:#181818;stroke-width:0.5;" width="107" x="1447.5" y="131"/><polygon fill="#F1F1F1" points="1537.5,136,1537.5,150,1549.5,150,1549.5,142,1543.5,136,1537.5,136" style="stroke:#181818;stroke-width:0.5;"/><line style="stroke:#181818;stroke-width:0.5;" x1="1543.5" x2="1543.5" y1="136" y2="142"/><line style="stroke:#181818;stroke-width:0.5;" x1="1549.5" x2="1543.5" y1="142" y2="142"/><text fill="#000000" font-family="sans-serif" font-size="14" lengthAdjust="spacing" textLength="77" x="1457.5" y="158.5332">App: argocd</text></g><!--entity App: app-infra_application_name-inf--><g id="elem_App: app-infra_application_name-inf"><rect fill="#F1F1F1" height="40.6094" rx="2.5" ry="2.5" style="stroke:#181818;stroke-width:0.5;" width="259" x="1065.5" y="131"/><polygon fill="#F1F1F1" points="1307.5,136,1307.5,150,1319.5,150,1319.5,142,1313.5,136,1307.5,136" style="stroke:#181818;stroke-width:0.5;"/><line style="stroke:#181818;stroke-width:0.5;" x1="1313.5" x2="1313.5" y1="136" y2="142"/><line style="stroke:#181818;stroke-width:0.5;" x1="1319.5" x2="1313.5" y1="142" y2="142"/><text fill="#000000" font-family="sans-serif" font-size="14" lengthAdjust="spacing" textLength="229" x="1075.5" y="158.5332">App: app-infra_application_name-inf</text></g><!--entity app-infra_application_name-inf--><g id="elem_app-infra_application_name-inf"><rect fill="#F1F1F1" height="40.6094" rx="2.5" ry="2.5" style="stroke:#181818;stroke-width:0.5;" width="226" x="773" y="131"/><polygon fill="#F1F1F1" points="982,136,982,150,994,150,994,142,988,136,982,136" style="stroke:#181818;stroke-width:0.5;"/><line style="stroke:#181818;stroke-width:0.5;" x1="988" x2="988" y1="136" y2="142"/><line style="stroke:#181818;stroke-width:0.5;" x1="994" x2="988" y1="142" y2="142"/><text fill="#000000" font-family="sans-serif" font-size="14" lengthAdjust="spacing" textLength="196" x="783" y="158.5332">app-infra_application_name-inf</text></g><!--entity app-application_name-acc--><g id="elem_app-application_name-acc"><rect fill="#F1F1F1" height="40.6094" rx="2.5" ry="2.5" style="stroke:#181818;stroke-width:0.5;" width="197" x="446.5" y="131"/><polygon fill="#F1F1F1" points="626.5,136,626.5,150,638.5,150,638.5,142,632.5,136,626.5,136" style="stroke:#181818;stroke-width:0.5;"/><line style="stroke:#181818;stroke-width:0.5;" x1="632.5" x2="632.5" y1="136" y2="142"/><line style="stroke:#181818;stroke-width:0.5;" x1="638.5" x2="632.5" y1="142" y2="142"/><text fill="#000000" font-family="sans-serif" font-size="14" lengthAdjust="spacing" textLength="167" x="456.5" y="158.5332">app-application_name-acc</text></g><!--entity app-application_name-prd--><g id="elem_app-application_name-prd"><rect fill="#F1F1F1" height="40.6094" rx="2.5" ry="2.5" style="stroke:#181818;stroke-width:0.5;" width="196" x="96" y="131"/><polygon fill="#F1F1F1" points="275,136,275,150,287,150,287,142,281,136,275,136" style="stroke:#181818;stroke-width:0.5;"/><line style="stroke:#181818;stroke-width:0.5;" x1="281" x2="281" y1="136" y2="142"/><line style="stroke:#181818;stroke-width:0.5;" x1="287" x2="281" y1="142" y2="142"/><text fill="#000000" font-family="sans-serif" font-size="14" lengthAdjust="spacing" textLength="166" x="106" y="158.5332">app-application_name-prd</text></g><!--SRC=[bL71QiCm3BtxAqJl-O7TGdSfWp7OxaLJb63YECAMeMNqtwTqNGYqwRg31T9xqdkIS- -ZOC811Ad7Zj_r61WIasBi0hiy4nfkiGJzu8FMmNTnuAX05ZWvT-c6pKlvv1HPESCsb6pW1huSm4oeKpTMs-UVwgB-YWDdo_W9q2ZK_3B0SlKjabgpo0oVmPERtdB-BhO9iwP2MXBVaucvyXDvZoB14weVupuQFfNNrKNkjLrShOhsTfyg7-qmmos9XwPFuMhlceZ5Fet-slbgC1AjMRd9NJdyMneRExfH_sj0KlEmWOcxC71otm00]--></g></svg>